<svg xmlns="http://www.w3.org/2000/svg" viewBox="0 0 32 32">
<symbol id="star">
<path d="M 31.167969 12.476562 C 31.027344 12.035156 30.640625 11.707031 30.179688 11.640625 L 21.144531 10.328125 L 17.101562 2.140625 C 16.6875 1.304688 15.3125 1.304688 14.894531 2.140625 L 10.855469 10.328125 L 1.820312 11.640625 C 1.359375 11.707031 0.972656 12.027344 0.828125 12.476562 C 0.683594 12.921875 0.804688 13.414062 1.140625 13.734375 L 7.679688 20.109375 L 6.132812 29.105469 C 6.058594 29.566406 6.246094 30.039062 6.625 30.3125 C 7.003906 30.585938 7.503906 30.625 7.917969 30.402344 L 16 26.160156 L 24.078125 30.402344 C 24.257812 30.5 24.457031 30.542969 24.652344 30.542969 C 24.910156 30.542969 25.160156 30.464844 25.375 30.3125 C 25.753906 30.035156 25.941406 29.566406 25.867188 29.105469 L 24.320312 20.109375 L 30.859375 13.734375 C 31.195312 13.410156 31.3125 12.921875 31.167969 12.476562 Z M 31.167969 12.476562"/>
</symbol>
</svg>
