<svg xmlns="http://www.w3.org/2000/svg" viewBox="0 0 32 32" >
<symbol id="noStar">
<path d="M 16 2.992188 C 15.484375 2.992188 14.96875 3.269531 14.730469 3.832031 L 13.171875 7.507812 L 23.902344 18.238281 L 28.777344 14.015625 C 29.703125 13.21875 29.207031 11.703125 27.992188 11.597656 L 20.285156 10.945312 L 17.269531 3.832031 C 17.03125 3.269531 16.515625 2.992188 16 2.992188 Z M 5.332031 4 C 4.992188 4 4.652344 4.128906 4.390625 4.390625 C 3.871094 4.910156 3.871094 5.757812 4.390625 6.277344 L 9.269531 11.152344 L 4.007812 11.597656 C 2.792969 11.703125 2.296875 13.21875 3.222656 14.015625 L 9.074219 19.089844 L 7.316406 26.625 C 7.039062 27.8125 8.328125 28.75 9.375 28.121094 L 16 24.121094 L 22.625 28.121094 C 23.671875 28.75 24.960938 27.8125 24.683594 26.625 L 24.664062 26.550781 L 25.722656 27.609375 C 26.242188 28.128906 27.089844 28.128906 27.609375 27.609375 C 28.128906 27.089844 28.128906 26.246094 27.609375 25.722656 L 23.519531 21.632812 L 23.515625 21.625 L 12.050781 10.15625 L 12.046875 10.160156 L 6.277344 4.390625 C 6.015625 4.128906 5.675781 4 5.332031 4 Z M 5.332031 4"/>
</symbol>
</svg>
